<svg width="427" height="50" viewBox="0 0 427 50" fill="none" xmlns="http://www.w3.org/2000/svg">
<path d="M16.2832 50C13.0383 50 10.177 49.4395 7.69911 48.3186C5.28024 47.1386 3.39233 45.5457 2.0354 43.5398C0.678466 41.4749 0 39.056 0 36.2832C0 33.6873 0.560472 31.3569 1.68142 29.292C2.86136 27.2271 4.66077 25.4867 7.07965 24.0708C9.49852 22.6549 12.5369 21.6519 16.1947 21.0619L32.8319 18.3186V26.1947L18.1416 28.7611C15.4867 29.233 13.5398 30.0885 12.3009 31.3274C11.0619 32.5074 10.4425 34.0413 10.4425 35.9292C10.4425 37.7581 11.1209 39.2625 12.4779 40.4425C13.8938 41.5634 15.6932 42.1239 17.8761 42.1239C20.59 42.1239 22.9499 41.5339 24.9557 40.354C27.0206 39.174 28.6136 37.6106 29.7345 35.6637C30.8555 33.6578 31.4159 31.4454 31.4159 29.0265V16.7257C31.4159 14.3658 30.531 12.4484 28.7611 10.9735C27.0501 9.43953 24.7493 8.67257 21.8584 8.67257C19.2035 8.67257 16.8732 9.38053 14.8673 10.7965C12.9204 12.1534 11.4749 13.9233 10.531 16.1062L2.21239 11.9469C3.09735 9.58702 4.54277 7.52212 6.54867 5.75221C8.55457 3.9233 10.885 2.50737 13.5398 1.50443C16.2537 0.501475 19.115 0 22.1239 0C25.8997 0 29.233 0.707964 32.1239 2.12389C35.0737 3.53982 37.3451 5.51623 38.9381 8.0531C40.59 10.531 41.4159 13.4218 41.4159 16.7257V48.9381H31.8584V40.2655L33.8938 40.531C32.7729 42.4779 31.3274 44.1593 29.5575 45.5752C27.8466 46.9911 25.8702 48.0826 23.6283 48.8496C21.4454 49.6165 18.997 50 16.2832 50Z" fill="black"/>
<path d="M71.427 50C66.6482 50 62.4004 48.9086 58.6836 46.7257C55.0258 44.4838 52.1055 41.4749 49.9226 37.6991C47.7987 33.9233 46.7367 29.646 46.7367 24.8673C46.7367 20.1475 47.7987 15.8997 49.9226 12.1239C52.0465 8.34808 54.9668 5.39823 58.6836 3.27434C62.4004 1.09145 66.6482 0 71.427 0C74.6718 0 77.7102 0.58997 80.542 1.76991C83.3739 2.89086 85.8223 4.45428 87.8872 6.46018C90.0111 8.46608 91.5745 10.7965 92.5774 13.4513L83.8164 17.5221C82.8134 15.0442 81.191 13.0678 78.9491 11.5929C76.7662 10.059 74.2588 9.29204 71.427 9.29204C68.7131 9.29204 66.2647 9.9705 64.0819 11.3274C61.958 12.6254 60.2765 14.4838 59.0376 16.9027C57.7987 19.2625 57.1792 21.9469 57.1792 24.9557C57.1792 27.9646 57.7987 30.6785 59.0376 33.0973C60.2765 35.4572 61.958 37.3156 64.0819 38.6726C66.2647 40.0295 68.7131 40.708 71.427 40.708C74.3178 40.708 76.8252 39.9705 78.9491 38.4956C81.132 36.9617 82.7544 34.9263 83.8164 32.3894L92.5774 36.5487C91.6335 39.0855 90.0996 41.3864 87.9757 43.4513C85.9108 45.4572 83.4624 47.0501 80.6305 48.2301C77.7987 49.41 74.7308 50 71.427 50Z" fill="black"/>
<path d="M120.67 50C115.891 50 111.643 48.9086 107.927 46.7257C104.269 44.4838 101.348 41.4749 99.1655 37.6991C97.0416 33.9233 95.9797 29.646 95.9797 24.8673C95.9797 20.1475 97.0416 15.8997 99.1655 12.1239C101.289 8.34808 104.21 5.39823 107.927 3.27434C111.643 1.09145 115.891 0 120.67 0C123.915 0 126.953 0.58997 129.785 1.76991C132.617 2.89086 135.065 4.45428 137.13 6.46018C139.254 8.46608 140.817 10.7965 141.82 13.4513L133.059 17.5221C132.056 15.0442 130.434 13.0678 128.192 11.5929C126.009 10.059 123.502 9.29204 120.67 9.29204C117.956 9.29204 115.508 9.9705 113.325 11.3274C111.201 12.6254 109.519 14.4838 108.281 16.9027C107.042 19.2625 106.422 21.9469 106.422 24.9557C106.422 27.9646 107.042 30.6785 108.281 33.0973C109.519 35.4572 111.201 37.3156 113.325 38.6726C115.508 40.0295 117.956 40.708 120.67 40.708C123.561 40.708 126.068 39.9705 128.192 38.4956C130.375 36.9617 131.997 34.9263 133.059 32.3894L141.82 36.5487C140.876 39.0855 139.342 41.3864 137.219 43.4513C135.154 45.4572 132.705 47.0501 129.873 48.2301C127.042 49.41 123.974 50 120.67 50Z" fill="black"/>
<path d="M169.647 50C164.869 50 160.621 48.9086 156.904 46.7257C153.246 44.4838 150.385 41.4749 148.32 37.6991C146.255 33.8643 145.223 29.587 145.223 24.8673C145.223 20.0295 146.255 15.7522 148.32 12.0354C150.444 8.31858 153.276 5.39823 156.816 3.27434C160.355 1.09145 164.367 0 168.851 0C172.45 0 175.665 0.61947 178.497 1.85841C181.329 3.09735 183.718 4.80826 185.665 6.99115C187.612 9.11504 189.087 11.5634 190.09 14.3363C191.152 17.1091 191.683 20.059 191.683 23.1858C191.683 23.9528 191.653 24.7493 191.594 25.5752C191.535 26.4012 191.417 27.1681 191.24 27.8761H153.099V19.9115H185.577L180.798 23.5398C181.388 20.649 181.181 18.0826 180.178 15.8407C179.234 13.5398 177.759 11.7404 175.754 10.4425C173.807 9.08554 171.506 8.40708 168.851 8.40708C166.196 8.40708 163.836 9.08554 161.771 10.4425C159.706 11.7404 158.113 13.6283 156.993 16.1062C155.872 18.5251 155.429 21.4749 155.665 24.9557C155.37 28.2006 155.813 31.0324 156.993 33.4513C158.231 35.8702 159.942 37.7581 162.125 39.115C164.367 40.472 166.904 41.1504 169.736 41.1504C172.627 41.1504 175.075 40.5015 177.081 39.2035C179.146 37.9056 180.768 36.2242 181.948 34.1593L190.09 38.1416C189.146 40.3835 187.671 42.4189 185.665 44.2478C183.718 46.0177 181.358 47.4336 178.585 48.4956C175.872 49.4985 172.892 50 169.647 50Z" fill="black"/>
<path d="M214.717 50C209.82 50 205.513 48.7906 201.796 46.3717C198.138 43.9528 195.572 40.708 194.097 36.6372L201.796 33.0088C203.094 35.7227 204.864 37.8761 207.106 39.469C209.407 41.0619 211.944 41.8584 214.717 41.8584C217.076 41.8584 218.994 41.3274 220.469 40.2655C221.944 39.2035 222.681 37.7581 222.681 35.9292C222.681 34.7493 222.357 33.8053 221.708 33.0973C221.059 32.3304 220.233 31.7109 219.23 31.2389C218.286 30.767 217.312 30.413 216.309 30.177L208.787 28.0531C204.658 26.8732 201.56 25.1032 199.495 22.7434C197.489 20.3245 196.486 17.5221 196.486 14.3363C196.486 11.4454 197.224 8.93805 198.699 6.81416C200.174 4.63127 202.209 2.94985 204.805 1.76991C207.401 0.58997 210.321 0 213.566 0C217.932 0 221.826 1.09145 225.247 3.27434C228.669 5.39823 231.088 8.37758 232.504 12.2124L224.805 15.8407C223.861 13.5398 222.357 11.7109 220.292 10.354C218.286 8.99705 216.014 8.31858 213.478 8.31858C211.295 8.31858 209.554 8.84956 208.256 9.91151C206.958 10.9145 206.309 12.2419 206.309 13.8938C206.309 15.0147 206.604 15.9587 207.194 16.7257C207.784 17.4336 208.551 18.0236 209.495 18.4956C210.439 18.9086 211.413 19.2625 212.416 19.5575L220.203 21.8584C224.156 22.9794 227.194 24.7493 229.318 27.1681C231.442 29.528 232.504 32.3599 232.504 35.6637C232.504 38.4956 231.737 41.0029 230.203 43.1858C228.728 45.3097 226.663 46.9911 224.009 48.2301C221.354 49.41 218.256 50 214.717 50Z" fill="black"/>
<path d="M255.577 50C250.68 50 246.373 48.7906 242.656 46.3717C238.998 43.9528 236.432 40.708 234.957 36.6372L242.656 33.0088C243.954 35.7227 245.724 37.8761 247.966 39.469C250.267 41.0619 252.804 41.8584 255.577 41.8584C257.936 41.8584 259.854 41.3274 261.329 40.2655C262.804 39.2035 263.541 37.7581 263.541 35.9292C263.541 34.7493 263.217 33.8053 262.568 33.0973C261.919 32.3304 261.093 31.7109 260.09 31.2389C259.146 30.767 258.172 30.413 257.17 30.177L249.647 28.0531C245.518 26.8732 242.42 25.1032 240.355 22.7434C238.349 20.3245 237.346 17.5221 237.346 14.3363C237.346 11.4454 238.084 8.93805 239.559 6.81416C241.034 4.63127 243.069 2.94985 245.665 1.76991C248.261 0.58997 251.181 0 254.426 0C258.792 0 262.686 1.09145 266.108 3.27434C269.529 5.39823 271.948 8.37758 273.364 12.2124L265.665 15.8407C264.721 13.5398 263.217 11.7109 261.152 10.354C259.146 8.99705 256.875 8.31858 254.338 8.31858C252.155 8.31858 250.414 8.84956 249.116 9.91151C247.818 10.9145 247.17 12.2419 247.17 13.8938C247.17 15.0147 247.464 15.9587 248.054 16.7257C248.644 17.4336 249.411 18.0236 250.355 18.4956C251.299 18.9086 252.273 19.2625 253.276 19.5575L261.063 21.8584C265.016 22.9794 268.054 24.7493 270.178 27.1681C272.302 29.528 273.364 32.3599 273.364 35.6637C273.364 38.4956 272.597 41.0029 271.063 43.1858C269.588 45.3097 267.523 46.9911 264.869 48.2301C262.214 49.41 259.116 50 255.577 50Z" fill="black"/>
<path d="M283.162 48.9381V37.4336H293.339V48.9381H283.162Z" fill="black"/>
<path d="M304.992 48.9381V1.06195H314.55V11.4159L313.311 9.82301C314.314 6.57817 316.143 4.12979 318.798 2.47788C321.453 0.825959 324.491 0 327.913 0C331.748 0 335.14 1.03245 338.09 3.09735C341.099 5.10325 343.104 7.78761 344.107 11.1504L341.276 11.4159C342.691 7.58112 344.845 4.71976 347.736 2.83186C350.686 0.943953 354.048 0 357.824 0C361.128 0 364.107 0.766962 366.762 2.30089C369.476 3.83481 371.63 5.9587 373.222 8.67257C374.815 11.3864 375.612 14.4838 375.612 17.9646V48.9381H365.612V20.708C365.612 18.2891 365.169 16.2537 364.284 14.6018C363.458 12.8909 362.278 11.5929 360.745 10.708C359.27 9.76401 357.529 9.29204 355.523 9.29204C353.517 9.29204 351.748 9.76401 350.214 10.708C348.68 11.5929 347.47 12.8909 346.585 14.6018C345.7 16.3127 345.258 18.3481 345.258 20.708V48.9381H335.346V20.708C335.346 18.2891 334.904 16.2537 334.019 14.6018C333.193 12.8909 332.013 11.5929 330.479 10.708C329.004 9.76401 327.234 9.29204 325.169 9.29204C323.163 9.29204 321.394 9.76401 319.86 10.708C318.326 11.5929 317.116 12.8909 316.231 14.6018C315.405 16.3127 314.992 18.3481 314.992 20.708V48.9381H304.992Z" fill="black"/>
<path d="M404.368 50C399.589 50 395.342 48.9086 391.625 46.7257C387.967 44.4838 385.106 41.4749 383.041 37.6991C380.976 33.8643 379.943 29.587 379.943 24.8673C379.943 20.0295 380.976 15.7522 383.041 12.0354C385.165 8.31858 387.996 5.39823 391.536 3.27434C395.076 1.09145 399.088 0 403.572 0C407.17 0 410.386 0.61947 413.218 1.85841C416.049 3.09735 418.439 4.80826 420.386 6.99115C422.333 9.11504 423.808 11.5634 424.811 14.3363C425.872 17.1091 426.403 20.059 426.403 23.1858C426.403 23.9528 426.374 24.7493 426.315 25.5752C426.256 26.4012 426.138 27.1681 425.961 27.8761H387.819V19.9115H420.297L415.518 23.5398C416.108 20.649 415.902 18.0826 414.899 15.8407C413.955 13.5398 412.48 11.7404 410.474 10.4425C408.527 9.08554 406.226 8.40708 403.572 8.40708C400.917 8.40708 398.557 9.08554 396.492 10.4425C394.427 11.7404 392.834 13.6283 391.713 16.1062C390.592 18.5251 390.15 21.4749 390.386 24.9557C390.091 28.2006 390.533 31.0324 391.713 33.4513C392.952 35.8702 394.663 37.7581 396.846 39.115C399.088 40.472 401.625 41.1504 404.457 41.1504C407.347 41.1504 409.796 40.5015 411.802 39.2035C413.867 37.9056 415.489 36.2242 416.669 34.1593L424.811 38.1416C423.867 40.3835 422.392 42.4189 420.386 44.2478C418.439 46.0177 416.079 47.4336 413.306 48.4956C410.592 49.4985 407.613 50 404.368 50Z" fill="black"/>
</svg>
